# xmcd CD database file
#
# Track frame offsets:
#	150
#	19647
#	37105
#	55139
#	76873
#	95242
#	114420
#	133468
#	151719
#	170765
#	187954
#	209097
#	226382
#	241692
#	260785
#	283211
#	303235
#	316284
#
# Disc length: 4486 seconds
#
# Revision: 1
# Processed by: cddbd v1.5.2PL0 Copyright (c) Steve Scherf et al.
# Submitted via: CDex 1.51
#
DISCID=00118412
DTITLE=Various Artist - MRH-98
DYEAR=1900
DGENRE=Blues
TTITLE0=Little Mix - DNA
TTITLE1=One Direction - Little Things
TTITLE2=Wanted The - I Found You
TTITLE3=Alicia Keys Ft Nicki Minaj - Girl On Fire (inferno)
TTITLE4=Example - Close Enemies
TTITLE5=Pink - Try
TTITLE6=Bruno Mars - Locked Out Of Heaven
TTITLE7=Justin Bieber and nicki Minaj - Beauty And The Beat
TTITLE8=Christina Aguilera - Your Body
TTITLE9=Calvin Harris Ft Florence Welch - Sweet Nothing
TTITLE10=Labrinth Ft Emeli Sande - Beneath Your Beautiful
TTITLE11=Swedish House Mafia Ft John Mart - Don't You Worry Child
TTITLE12=Olly Murs Ft Flo Rida - TroubleMaker
TTITLE13=Wiley Ft Skepta JME and Ms D - Can You Hear Me (ayayaya)
TTITLE14=Lana Del Rey - Ride
TTITLE15=Rudimental Ft John Newman +Alex Clare - Not Giving In
TTITLE16=The Lumineers - Ho Hey
TTITLE17=Disclosure Ft Sam Smith - Latch
EXTD=
EXTT0=
EXTT1=
EXTT2=
EXTT3=
EXTT4=
EXTT5=
EXTT6=
EXTT7=
EXTT8=
EXTT9=
EXTT10=
EXTT11=
EXTT12=
EXTT13=
EXTT14=
EXTT15=
EXTT16=
EXTT17=
PLAYORDER=
